<?xml version="1.0" standalone="no"?>
<!DOCTYPE svg PUBLIC "-//W3C//DTD SVG 1.1//EN" "http://www.w3.org/Graphics/SVG/1.1/DTD/svg11.dtd" >
<svg>
<metadata>
Created by FontForge 20110222 at Wed May  7 10:26:00 2014
 By Orthosie Webhosting
Typeface (c) gadisradio inc. 2008. All Rights Reserved
</metadata>
<defs>
<font id="JUICELightRegular" horiz-adv-x="1014" >
  <font-face 
    font-family="JUICELightRegular"
    font-weight="400"
    font-stretch="normal"
    units-per-em="2048"
    panose-1="2 0 5 0 0 0 0 0 0 0"
    ascent="1638"
    descent="-410"
    x-height="1183"
    cap-height="1732"
    bbox="-342 -433 2048 1736"
    underline-thickness="150"
    underline-position="-142"
    unicode-range="U+0020-F002"
  />
<missing-glyph horiz-adv-x="1024" 
d="M100 0v1434h824v-1434h-824zM150 50h724v1334h-724v-1334zM325 1148q31 28 58 43q53 30 112 30q92 0 148 -47.5t56 -127.5q0 -49 -23 -98.5t-87 -129.5q-63 -80 -99 -132t-36 -99q0 -38 24 -133h-32q-35 97 -35 148q0 76 81.5 218t81.5 217q0 57 -33 90t-91 33
q-38 0 -69 -17q-26 -15 -56 -40v45zM389 334l57 58q11 10 20 10q10 0 22 -11l56 -60q9 -11 9 -20q0 -11 -10 -22l-56 -62q-14 -14 -21 -14q-11 0 -20 10l-61 71q-7 9 -7 18q0 10 11 22z" />
    <glyph glyph-name=".notdef" horiz-adv-x="1024" 
d="M100 0v1434h824v-1434h-824zM150 50h724v1334h-724v-1334zM325 1148q31 28 58 43q53 30 112 30q92 0 148 -47.5t56 -127.5q0 -49 -23 -98.5t-87 -129.5q-63 -80 -99 -132t-36 -99q0 -38 24 -133h-32q-35 97 -35 148q0 76 81.5 218t81.5 217q0 57 -33 90t-91 33
q-38 0 -69 -17q-26 -15 -56 -40v45zM389 334l57 58q11 10 20 10q10 0 22 -11l56 -60q9 -11 9 -20q0 -11 -10 -22l-56 -62q-14 -14 -21 -14q-11 0 -20 10l-61 71q-7 9 -7 18q0 10 11 22z" />
    <glyph glyph-name=".null" horiz-adv-x="0" 
 />
    <glyph glyph-name="nonmarkingreturn" horiz-adv-x="508" 
 />
    <glyph glyph-name="space" unicode=" " horiz-adv-x="508" 
 />
    <glyph glyph-name="space" unicode="&#xa0;" horiz-adv-x="508" 
 />
    <glyph glyph-name="exclam" unicode="!" horiz-adv-x="547" 
d="M213 1716h12q102 0 116 -124v-1176l-8 -8h-4q-124 0 -124 156v1144zM221 232q116 0 116 -148v-76l-8 -8h-12q-88 0 -104 120v104z" />
    <glyph glyph-name="quotedbl" unicode="&#x22;" horiz-adv-x="770" 
d="M210 1726h12q88 0 112 -92l4 -28v-420q0 -8 -12 -8q-93 0 -120 96l-4 32v412zM454 1726h8q116 -11 116 -116v-424q0 -8 -12 -8q-82 0 -116 84l-4 24v432z" />
    <glyph glyph-name="numbersign" unicode="#" horiz-adv-x="1981" 
d="M854 1576q78 0 88 -104v-4l-80 -404h352l112 512h8q88 0 88 -112l-80 -400h296q123 0 144 -104v-12l-8 -8h-460l-64 -304h364q117 0 156 -68l12 -32v-20l-8 -8h-552l-108 -504l-4 -4h-20q-55 0 -72 88v40l76 380h-352q-100 -479 -112 -508h-16q-68 0 -80 108l80 400h-240
q-168 0 -168 120l8 8h428l64 304h-352q-119 0 -148 100v20l4 4h524q100 484 112 512h8zM834 940l-64 -308l4 4h352l60 304h-352z" />
    <glyph glyph-name="dollar" unicode="$" horiz-adv-x="1144" 
d="M519 1731q105 -15 105 -105v-132h318l7 -7q-13 -98 -98 -98h-293q-188 0 -241 -210l-7 -52q0 -161 150 -192q301 0 402 -168q83 -127 83 -258v-154q0 -248 -206 -339q-34 -14 -115 -24v-234l-7 -7h-10q-98 19 -98 91v146l-7 7h-290l-7 7v11q0 64 91 84h234q205 0 269 122
q42 69 42 150v154q0 204 -213 283q-46 20 -200 28q-111 27 -171 104q-52 82 -52 178v46q0 242 248 321q56 6 56 14v227q0 7 10 7z" />
    <glyph glyph-name="percent" unicode="%" horiz-adv-x="1152" 
d="M211 1732h20q185 0 256 -148q12 -49 12 -108v-284l-12 -12q-178 0 -260 124q-24 41 -24 108v312zM885 1728q68 -41 68 -108v-24q0 -26 -348 -832l-320 -752h-8q-68 38 -68 112v8q0 40 124 316l544 1280h8zM677 552q196 0 268 -144l12 -64v-336l-8 -8h-4q-199 0 -268 144
q-12 32 -12 60v340q0 8 12 8z" />
    <glyph glyph-name="ampersand" unicode="&#x26;" horiz-adv-x="1247" 
d="M610 1728h448l12 -8q-12 -124 -124 -124h-284q-328 0 -328 -360v-200q0 -102 68 -128l72 -8h160v180l8 8q124 -17 124 -120v-420l-8 -8q-124 18 -124 120v108h-192q-108 0 -108 -120v-132q0 -277 148 -348q72 -40 204 -40h372l8 -8v-8q0 -98 -116 -112h-340
q-269 0 -372 224q-36 80 -36 168v328q0 72 68 104l12 4v4q-48 0 -80 104v348q0 309 216 404q89 40 192 40z" />
    <glyph glyph-name="quotesingle" unicode="'" horiz-adv-x="543" 
d="M210 1730h12q105 0 116 -120v-420q0 -8 -12 -8q-80 0 -116 80l-8 60v400z" />
    <glyph glyph-name="parenleft" unicode="(" horiz-adv-x="902" 
d="M597 1728h112l12 -12q0 -108 -188 -136q-192 -78 -192 -272v-908q0 -184 224 -264q156 -18 156 -132l-4 -4h-152q-257 0 -344 280q-16 86 -16 128v892q0 298 228 404q78 24 164 24z" />
    <glyph glyph-name="parenright" unicode=")" horiz-adv-x="858" 
d="M154 1728h104q404 0 404 -464v-800q0 -343 -228 -440q-69 -24 -136 -24h-144l-8 8q0 76 80 112q157 29 228 104q72 83 72 208v852q0 220 -188 292q-176 41 -176 84q-16 26 -16 60z" />
    <glyph glyph-name="asterisk" unicode="*" horiz-adv-x="1166" 
d="M530 1730h12q88 0 104 -156v-124l200 196q36 -31 36 -68v-8q0 -78 -144 -208v-4h136q96 0 136 -76q8 -16 8 -44l-4 -4h-276q144 -129 144 -212v-4q0 -43 -36 -68h-4l-196 192v-272q0 -8 -12 -8q-112 18 -112 136v144h-4l-196 -192h-4q-36 26 -36 76q0 74 148 208h-120
q-160 11 -160 104v12l8 8h272q-148 134 -148 212q0 45 36 76h4l200 -196v272z" />
    <glyph glyph-name="plus" unicode="+" horiz-adv-x="1276" 
d="M582 1180h12q88 0 104 -156v-216h228q96 0 136 -76q8 -16 8 -44l-4 -4h-368v-364q0 -8 -12 -8q-112 18 -112 136v236h-212q-160 11 -160 104v12l8 8h356l8 8v356z" />
    <glyph glyph-name="comma" unicode="," horiz-adv-x="400" 
d="M99 139h8q80 0 112 -64l4 -36v-36q0 -97 -104 -136q-40 -12 -92 -12h-4q-21 0 -24 12q80 24 80 76q12 29 12 80v108z" />
    <glyph glyph-name="hyphen" unicode="-" horiz-adv-x="1262" 
d="M950 731q116 -19 116 -116v-8l-8 -8h-708q-148 0 -148 128l4 4h744z" />
    <glyph glyph-name="hyphen" unicode="&#xad;" horiz-adv-x="1262" 
d="M950 731q116 -19 116 -116v-8l-8 -8h-708q-148 0 -148 128l4 4h744z" />
    <glyph glyph-name="period" unicode="." horiz-adv-x="539" 
d="M241 136h72q22 0 28 -16v-108l-12 -12h-108q-16 7 -16 28v80q0 28 36 28z" />
    <glyph glyph-name="slash" unicode="/" horiz-adv-x="1093" 
d="M822 1576q68 -34 68 -108q0 -35 -244 -592q-361 -862 -376 -876h-4q-60 38 -60 88v36q4 27 136 336l476 1116h4z" />
    <glyph glyph-name="zero" unicode="0" horiz-adv-x="1254" 
d="M585 1732h96q250 0 352 -228q28 -84 28 -172v-936q0 -274 -240 -372q-58 -24 -148 -24l-40 4l-48 -4q-254 0 -352 240q-28 73 -28 176v864q0 329 208 416q94 36 172 36zM329 1328v-908q0 -300 284 -300h40q199 0 260 148q24 65 24 132v956q0 187 -176 244l-108 12h-28
q-296 0 -296 -284z" />
    <glyph glyph-name="one" unicode="1" horiz-adv-x="873" 
d="M323 1732q155 0 292 -164q56 -105 56 -244v-1316l-8 -8q-112 20 -112 112v1192q0 226 -140 284q-60 28 -188 28q-80 34 -80 112l4 4h176z" />
    <glyph glyph-name="two" unicode="2" horiz-adv-x="1251" 
d="M210 1732h468q245 0 348 -228q28 -81 28 -172q0 -366 -728 -1212h600q124 -13 124 -108v-12h-712q-113 0 -132 76l-4 24v20q0 62 336 464q396 515 396 760q0 173 -132 240q-58 28 -112 28h-352q-103 0 -128 64l-8 36v12z" />
    <glyph glyph-name="three" unicode="3" horiz-adv-x="1203" 
d="M162 1732h468q219 0 328 -188q48 -85 48 -248v-316q-13 -136 -96 -136v-4q48 0 88 -68l8 -48v-312q0 -250 -184 -360q-72 -52 -284 -52h-240q-107 0 -136 68l-8 32v12l8 8h440q183 0 256 152q28 68 28 192v204q0 120 -148 120h-156q-99 0 -116 100v12l4 4h260
q108 0 144 60q12 43 12 84v256q0 259 -220 304l-52 4h-320q-140 0 -140 108v4z" />
    <glyph glyph-name="four" unicode="4" horiz-adv-x="1254" 
d="M214 1732q100 0 112 -120v-424q0 -189 180 -248q44 -16 164 -16h68l200 4v796l8 8h12q83 0 100 -120v-1604l-8 -8q-97 0 -112 124v676l-8 8h-320q-273 0 -372 220q-36 99 -36 156l4 136v404z" />
    <glyph glyph-name="five" unicode="5" horiz-adv-x="1254" 
d="M337 1732h712l8 -8q0 -99 -120 -112h-608v-688h320q284 0 368 -204q44 -92 44 -184v-128q0 -284 -244 -380q-60 -20 -140 -28l-68 4h-396l-8 8q18 108 124 108h304q226 0 288 172l20 100l-4 100v72q0 172 -204 232l-60 8h-360q-92 0 -108 124v676q0 128 132 128z" />
    <glyph glyph-name="six" unicode="6" horiz-adv-x="1254" 
d="M577 1732h472l8 -8q0 -112 -136 -112h-344q-175 0 -236 -172q-16 -49 -16 -100v-412h356q272 0 364 -284q12 -65 12 -116v-84q0 -444 -440 -444q-306 0 -396 276q-16 75 -16 112v1000q0 257 292 336zM325 808v-412q0 -229 216 -272h140q157 0 232 156q24 58 24 156v68
q0 304 -292 304h-320z" />
    <glyph glyph-name="seven" unicode="7" horiz-adv-x="1152" 
d="M166 1732h736q89 0 108 -112q0 -97 -664 -1480q-73 -140 -184 -140l-4 4v4l728 1604h-588q-108 0 -136 84l-4 28z" />
    <glyph glyph-name="eight" unicode="8" horiz-adv-x="1258" 
d="M570 1736q339 0 424 -168q64 -97 64 -208v-200q0 -183 -168 -296q93 -54 140 -172q28 -77 28 -140v-192q0 -266 -280 -344q-40 -16 -104 -16h-92q-250 0 -340 216q-40 90 -40 180v100q0 269 164 364v4q-164 135 -164 340v108q0 286 208 384q96 40 160 40zM330 1360v-152
l-4 -4l4 -4v-12q0 -199 204 -256l124 -8q158 0 244 144q40 59 40 284q0 114 -96 200q-78 64 -240 64q-197 0 -264 -168q-12 -50 -12 -88zM330 552v-184q0 -170 184 -240q55 -12 100 -12h36q201 0 272 192q20 66 20 236q0 125 -112 212q-81 52 -232 52q-153 0 -236 -124
q-32 -63 -32 -132z" />
    <glyph glyph-name="nine" unicode="9" horiz-adv-x="1254" 
d="M629 1732h24q290 0 380 -260q24 -74 24 -164v-924q0 -260 -212 -348q-85 -36 -208 -36h-424l-8 8v16q20 96 96 96h348q188 0 252 128q32 71 32 136v420h-316q-296 0 -388 244q-24 70 -24 128v156q0 267 224 368q104 32 200 32zM325 1336v-136q0 -203 188 -264l72 -8h348
v12l4 404q0 156 -132 240q-52 28 -144 28h-60q-205 0 -268 -196z" />
    <glyph glyph-name="colon" unicode=":" horiz-adv-x="539" 
d="M213 1006q105 0 116 -132v-96l-8 -8q-91 0 -116 104v124zM213 470h4q112 0 112 -144v-80l-8 -8q-83 0 -112 84l-4 36v104z" />
    <glyph glyph-name="semicolon" unicode=";" horiz-adv-x="528" 
d="M210 1000h4q112 0 112 -144v-80l-8 -8h-12q-65 0 -96 76q-8 18 -8 52v96zM206 140q90 0 120 -64l4 -28v-36q0 -156 -196 -156h-4q-21 0 -24 12q76 23 76 68q11 0 16 96v100z" />
    <glyph glyph-name="semicolon" unicode="&#x37e;" horiz-adv-x="528" 
d="M210 1000h4q112 0 112 -144v-80l-8 -8h-12q-65 0 -96 76q-8 18 -8 52v96zM206 140q90 0 120 -64l4 -28v-36q0 -156 -196 -156h-4q-21 0 -24 12q76 23 76 68q11 0 16 96v100z" />
    <glyph glyph-name="less" unicode="&#x3c;" horiz-adv-x="899" 
d="M640 1185q60 -41 60 -83v-32q0 -33 -150 -213l-210 -264l352 -451l8 -35v-20q0 -43 -56 -87h-7l-435 529v123l435 533h3z" />
    <glyph glyph-name="equal" unicode="=" horiz-adv-x="1273" 
d="M214 825h708q101 0 144 -76l8 -44l-4 -4h-724q-140 16 -140 104v12zM214 461h704q96 0 140 -64q16 -25 16 -56l-4 -4h-732q-132 19 -132 104v12z" />
    <glyph glyph-name="greater" unicode="&#x3e;" horiz-adv-x="899" 
d="M265 1181h4l433 -528v-125l-429 -528h-12q-55 46 -55 91v11q0 50 138 201l220 288l-346 440q-12 31 -12 56q0 48 59 94z" />
    <glyph glyph-name="question" unicode="?" horiz-adv-x="1163" 
d="M107 1724h440q311 0 400 -288q16 -61 16 -116v-184q0 -200 -200 -336q-111 -50 -176 -52v-400l-8 -8q-124 24 -124 116l-4 28v304q0 108 152 108q228 69 228 332v44q0 235 -220 308q-70 12 -148 12h-260q-104 16 -104 116v8zM471 236q74 0 104 -72l8 -32v-124l-4 -4v-4
q-116 15 -116 116v112z" />
    <glyph glyph-name="at" unicode="@" horiz-adv-x="1801" 
d="M602 1472h748q174 0 236 -160q16 -55 16 -100v-1096q-13 -116 -116 -116h-180q-69 0 -96 104h-4q-116 -104 -252 -104h-468l-8 8v820q0 268 296 356l108 12h444l8 -8v-956q0 -100 88 -100h64v1052q0 118 -112 148l-36 4h-720q-199 0 -268 -168q-16 -52 -16 -100v-1060
l-8 -8q-124 14 -124 124v932q0 277 224 384q77 32 176 32zM610 704v-572h296q171 0 268 144q36 64 36 176v612h-280q-217 0 -296 -164q-24 -65 -24 -196z" />
    <glyph glyph-name="A" unicode="A" horiz-adv-x="1265" 
d="M213 1728h500q228 0 328 -228q28 -81 28 -152v-1340l-8 -8h-20q-80 20 -80 48q-28 27 -28 112v496h-596v-648l-8 -8h-4q-109 0 -120 128v1592zM337 1600v-812h596v580q0 165 -184 224l-104 8h-308z" />
    <glyph glyph-name="B" unicode="B" horiz-adv-x="1251" 
d="M213 1728h472q200 0 324 -180q48 -95 48 -172v-252q0 -162 -164 -252h-4v-8q168 -82 168 -260v-192q0 -172 -68 -252q-117 -160 -304 -160h-472l-8 8v1712zM329 1612v-700h244q266 0 348 140q16 46 16 80v92q0 244 -24 244q0 35 -96 108q-75 36 -224 36h-264zM329 796
v-668l-4 -4v-4h304l44 -4q172 0 252 172q12 43 12 72v180q0 256 -336 256h-272z" />
    <glyph glyph-name="C" unicode="C" horiz-adv-x="1254" 
d="M582 1732h364q112 -16 112 -112l-4 -4h-420q-308 0 -308 -280v-960q0 -189 176 -244q47 -12 108 -12h332q96 0 112 -96v-16l-8 -8h-472q-228 0 -340 216q-28 69 -28 156v912l-4 76q0 149 112 272q109 100 268 100z" />
    <glyph glyph-name="D" unicode="D" horiz-adv-x="1254" 
d="M210 1732h468q253 0 352 -228q28 -83 28 -168v-924q0 -299 -240 -384q-67 -28 -224 -28h-384l-8 8v1716zM326 1612v-1492h312q239 0 288 200l8 52l4 632v188q0 296 -80 352q-66 68 -216 68h-316z" />
    <glyph glyph-name="E" unicode="E" horiz-adv-x="1251" 
d="M585 1728h340q114 0 132 -100v-16l-4 -4h-432l-4 4l-4 -4h-36q-107 0 -184 -76q-68 -77 -68 -200v-408h504q108 -14 108 -100v-8l-8 -8h-604v-424q0 -174 148 -244q44 -24 188 -24h288q104 -21 104 -96v-12l-8 -8h-468q-233 0 -340 216q-32 88 -32 156v988q0 221 212 336
q72 32 168 32z" />
    <glyph glyph-name="F" unicode="F" horiz-adv-x="1254" 
d="M569 1732h480q8 0 8 -12q0 -95 -128 -108h-332q-202 0 -260 -172q-12 -55 -12 -112v-544h612v-4q0 -96 -104 -112h-508v-660l-4 -4v-4q-116 15 -116 116v1256q0 236 252 344q62 16 112 16z" />
    <glyph glyph-name="G" unicode="G" horiz-adv-x="1254" 
d="M585 1732h468v-20q0 -81 -112 -96h-244q-255 0 -300 -80q-72 -65 -72 -220v-896q0 -300 284 -300h36q208 0 272 164q12 29 20 88l-4 180v60q0 50 -60 56h-252q-80 0 -112 60l-12 52l4 4h440q116 0 116 -132v-644l-8 -8q-112 16 -112 100q-109 -100 -244 -100
q-246 0 -324 60q-164 112 -164 340v952q0 264 252 360q70 20 128 20z" />
    <glyph glyph-name="H" unicode="H" horiz-adv-x="1254" 
d="M213 1732q77 0 108 -88l4 -28v-544h608v652q0 8 12 8q108 -22 108 -100l4 -28v-1596l-4 -4v-4q-104 25 -104 60q-12 0 -16 68v824h-608v-944l-4 -4v-4q-116 24 -116 100v1624z" />
    <glyph glyph-name="I" unicode="I" horiz-adv-x="539" 
d="M214 1732q116 -22 116 -116v-1608l-4 -4v-4q-120 19 -120 116v1608z" />
    <glyph glyph-name="J" unicode="J" horiz-adv-x="1155" 
d="M482 1732h412q60 -5 60 -60v-1228q0 -299 -188 -392q-48 -52 -324 -52h-332l-8 8v4q0 83 92 104l28 4h316q188 0 252 112q44 73 44 200v1120q-8 60 -52 60h-168q-103 0 -128 64l-12 44v4z" />
    <glyph glyph-name="K" unicode="K" horiz-adv-x="1254" 
d="M213 1732q108 -13 108 -96l4 -28v-536h336q202 0 268 236l8 84v332l8 8q79 0 108 -84l4 -44v-224q0 -247 -140 -352q140 -79 140 -288v-732l-4 -4v-4q-116 14 -116 116v616q0 220 -208 220h-404v-928l-8 -8h-12q-78 0 -100 104v1604z" />
    <glyph glyph-name="L" unicode="L" horiz-adv-x="1166" 
d="M218 1728q94 0 108 -116v-1168q0 -242 124 -296q59 -32 168 -32h328q112 -14 112 -112l-4 -4h-484q-255 0 -348 260q-16 66 -16 108v1352q0 8 12 8z" />
    <glyph glyph-name="M" unicode="M" horiz-adv-x="1984" 
d="M217 1732q108 -23 108 -84h4q104 84 292 84h60q196 0 316 -160q137 160 296 160h128q236 0 340 -220q28 -72 28 -184v-1316q0 -8 -12 -8q-96 24 -96 68q-10 0 -12 48v1192q0 204 -120 268q-86 36 -216 36q-227 0 -268 -228q-8 -41 -8 -128v-1248q0 -8 -12 -8
q-91 0 -108 112v1252q0 178 -192 236l-88 8h-56q-189 0 -252 -152q-20 -62 -20 -124v-1328l-8 -8q-116 22 -116 116v1608q0 8 12 8z" />
    <glyph glyph-name="N" unicode="N" horiz-adv-x="1251" 
d="M209 1728h4q108 0 108 -92q98 92 268 92h88q256 0 352 -236q24 -73 24 -184v-1300q0 -8 -12 -8q-112 0 -112 148v1192q0 189 -152 248q-62 20 -124 20h-72q-189 0 -244 -176q-16 -43 -16 -128v-1296l-8 -8h-8q-77 0 -104 92v1628z" />
    <glyph glyph-name="O" unicode="O" horiz-adv-x="1254" 
d="M585 1732h96q250 0 352 -228q28 -84 28 -172v-936q0 -274 -240 -372q-58 -24 -148 -24l-40 4l-48 -4q-252 0 -352 240q-28 73 -28 176v864q0 339 220 420q83 32 160 32zM329 1328v-908q0 -300 284 -300h40q199 0 260 148q24 65 24 132v956q0 187 -176 244l-108 12h-28
q-296 0 -296 -284z" />
    <glyph glyph-name="P" unicode="P" horiz-adv-x="1251" 
d="M209 1732q108 -14 108 -88l4 -4v-4q120 96 212 96h144q261 0 352 -244q24 -69 24 -152v-380q0 -275 -212 -372q-98 -36 -176 -36h-344v-540l-4 -4v-4q-79 0 -112 88l-4 24v1612zM321 1272v-608h308q213 0 276 152q24 66 24 124v428q0 156 -160 232q-62 16 -124 16
q-214 0 -284 -116q-40 -54 -40 -228z" />
    <glyph glyph-name="Q" unicode="Q" horiz-adv-x="1298" 
d="M581 1723h92q302 0 376 -292q12 -68 12 -188v-812q0 -280 -172 -380q54 -64 244 -64q76 -34 76 -112l-4 -4h-120q-204 0 -312 128l-48 -4h-184q-140 0 -264 144q-72 113 -72 236v952q0 299 264 380q57 16 112 16zM325 1279v-812q0 -297 164 -336q37 -20 128 -20h76l8 8
q-20 76 -20 148v128q0 7 20 12q71 0 100 -80q6 -174 24 -176q112 79 112 272v884q0 196 -112 256q-71 40 -180 40h-36q-229 0 -272 -188q-12 -45 -12 -136z" />
    <glyph glyph-name="R" unicode="R" horiz-adv-x="1254" 
d="M213 1732q76 0 104 -68q5 -28 12 -28q109 96 208 96h148q258 0 352 -252q20 -75 20 -152v-360q0 -267 -168 -356v-8q168 -98 168 -360v-232q0 -8 -12 -8q-108 20 -108 96v156q0 211 -160 272q-66 20 -124 20h-328v-540l-4 -4v-4q-101 0 -116 120v1604zM325 1292v-624h360
q165 0 232 172q16 58 16 104v424q0 171 -184 240l-104 8q-235 0 -296 -148q-24 -54 -24 -176z" />
    <glyph glyph-name="S" unicode="S" horiz-adv-x="1254" 
d="M574 1732h472l8 -8q0 -72 -72 -104l-56 -8h-324q-280 0 -280 -288q0 -166 124 -228q34 -22 240 -36q184 -47 264 -164q100 -149 100 -288v-212q0 -271 -240 -368q-44 -16 -132 -28l-176 4h-292l-8 8q0 83 88 104l28 4h304q221 0 280 140q24 48 32 132l-4 160v60
q0 270 -292 332q-205 13 -232 40q-90 28 -164 140q-40 95 -40 168v60q0 278 268 368z" />
    <glyph glyph-name="T" unicode="T" horiz-adv-x="1152" 
d="M275 1728h716l8 -8q-22 -92 -52 -92q0 -16 -96 -20h-212v-1600l-8 -8h-16q-76 17 -76 44q-21 4 -24 104v1460h-360q-8 0 -8 12q18 108 128 108z" />
    <glyph glyph-name="U" unicode="U" horiz-adv-x="1247" 
d="M206 1732q116 -13 116 -116v-1208q0 -194 136 -260q71 -28 140 -28h36q225 0 292 188l8 88v1328l8 8h8q66 0 96 -76q8 -18 8 -52v-1176q0 -428 -444 -428q-280 0 -380 224q-24 71 -32 140l4 140v1220l4 4v4z" />
    <glyph glyph-name="V" unicode="V" horiz-adv-x="1251" 
d="M202 1728h4q130 0 156 -208l264 -1264h4q52 274 288 1384q42 88 132 88l4 -4l-368 -1724h-24q-123 0 -148 248q-260 1202 -312 1480z" />
    <glyph glyph-name="W" unicode="W" horiz-adv-x="1988" 
d="M217 1728q112 -11 112 -108v-1232q0 -198 180 -260q65 -12 116 -12h4q229 0 292 164q16 58 16 88v1236q0 8 12 8q72 0 104 -80l8 -56v-1112q0 -181 200 -240l96 -8q227 0 292 160q20 46 20 88v1204q0 117 56 144l60 16l4 -4v-1344q0 -283 -280 -368q-46 -12 -96 -12h-120
q-164 0 -288 160h-8q-141 -160 -304 -160h-96q-302 0 -380 284q-12 65 -12 116v1320q0 8 12 8z" />
    <glyph glyph-name="X" unicode="X" horiz-adv-x="1372" 
d="M217 1732q77 0 112 -64q12 -19 12 -52v-364q0 -316 288 -316h96q226 0 288 172q15 51 20 104l-4 20v492l8 8h8q96 0 120 -100v-436q0 -206 -184 -316h-4v-8q192 -106 192 -348v-516l-8 -8q-128 14 -128 104l-4 28v408q0 203 -208 264l-96 12h-92q-195 0 -268 -160
q-24 -49 -24 -124v-524l-8 -8q-128 14 -128 120v460q0 176 188 292v8q-188 101 -188 312v532q0 8 12 8z" />
    <glyph glyph-name="Y" unicode="Y" horiz-adv-x="1258" 
d="M214 1732q102 0 112 -136v-640q0 -203 164 -272q65 -20 108 -20q275 0 332 192l8 76v800h4q85 0 112 -88l4 -36v-1200q0 -283 -236 -380q-79 -28 -140 -28h-336q-99 0 -128 60l-12 48v4l8 8h404q231 0 292 144q28 76 28 148v228h-4q-114 -92 -264 -92h-64
q-300 0 -388 272l-16 104l4 60v740z" />
    <glyph glyph-name="Z" unicode="Z" horiz-adv-x="1247" 
d="M210 1732h720q103 0 120 -100v-12q0 -113 -724 -1496v-4h720l8 -8q-21 -108 -108 -108l-56 -4h-552q-96 0 -132 92l-4 32v4q0 108 688 1412l40 72h-592q-114 0 -132 76l-4 20v16z" />
    <glyph glyph-name="bracketleft" unicode="[" horiz-adv-x="741" 
d="M329 1732h208l8 -8q0 -124 -136 -124h-72v-1464h56q152 0 152 -120v-4l-12 -12h-184q-113 0 -140 84l-4 28v1516q0 88 124 104z" />
    <glyph glyph-name="backslash" unicode="\" horiz-adv-x="1086" 
d="M273 1576q592 -1378 612 -1444l4 -32q0 -60 -60 -100h-8q-8 3 -420 984q-196 446 -196 472v20q0 71 68 100z" />
    <glyph glyph-name="bracketright" unicode="]" horiz-adv-x="741" 
d="M214 1732h208q120 -16 120 -100l4 -28v-1468q0 -136 -148 -136h-184l-12 12q0 89 88 120l76 4h44v1464h-72q-114 0 -132 104v20z" />
    <glyph glyph-name="asciicircum" unicode="^" horiz-adv-x="1170" 
d="M570 1733h120l372 -540v-4q0 -10 -48 -12q-128 0 -200 148l-184 268q-230 -346 -256 -372q-57 -44 -136 -44q-36 3 -36 12v4z" />
    <glyph glyph-name="underscore" unicode="_" horiz-adv-x="869" 
d="M751 -95q116 -19 116 -116v-8l-8 -8h-708q-148 0 -148 128l4 4h744z" />
    <glyph glyph-name="grave" unicode="`" horiz-adv-x="1024" 
d="M673 1079h-69l-330 202q-31 20 -46.5 40t-15.5 42q0 31 20.5 51t53.5 20q20 0 40.5 -12t55.5 -47z" />
    <glyph glyph-name="a" unicode="a" horiz-adv-x="1258" 
d="M565 1188h488l8 -8v-1172q0 -8 -12 -8q-108 17 -108 100h-4q-95 -100 -304 -100h-420l-8 8v796q0 309 292 376zM333 816v-692h320q200 0 268 168q16 69 16 128v644h-344q-185 0 -248 -156z" />
    <glyph glyph-name="b" unicode="b" horiz-adv-x="1258" 
d="M218 1728q108 -13 108 -96v-240l-4 -208l4 -4h368q228 0 340 -240q24 -81 24 -188v-288q0 -215 -44 -260q0 -32 -112 -136q-99 -68 -192 -68h-116q-195 0 -264 104h-4q0 -85 -116 -104l-4 4v1716q0 8 12 8zM322 1064v-572q0 -299 132 -340q53 -36 204 -36h24
q160 0 232 164q12 26 24 136l-4 40v256l4 84q0 182 -176 252q-67 16 -160 16h-280z" />
    <glyph glyph-name="c" unicode="c" horiz-adv-x="1254" 
d="M638 1184h280q136 -13 136 -96l4 -20l-4 -4h-452q-199 0 -260 -168q-16 -52 -16 -120v-360q0 -296 272 -296h312q144 0 144 -112l-8 -8h-476q-242 0 -336 232q-28 73 -28 164v416q0 232 224 344q88 28 208 28z" />
    <glyph glyph-name="d" unicode="d" horiz-adv-x="1284" 
d="M1081 1731l8 -8v-1733l-8 -8q-117 10 -117 93q-105 -97 -329 -97q-365 0 -430 332l-4 73v421q0 226 217 340q84 32 162 32h17l363 4l4 4v458q0 75 104 89h13zM326 784v-332q0 -261 113 -304q65 -44 175 -44h12l17 -5l17 5h16q200 0 267 165q21 89 21 187l-4 12l4 20
l-4 227v344h-313q-321 0 -321 -275z" />
    <glyph glyph-name="e" unicode="e" horiz-adv-x="1258" 
d="M605 1184h40q293 0 380 -232q32 -81 32 -204v-64q0 -140 -120 -140h-604l-8 -8v-160q0 -185 176 -244q34 -11 100 -16l84 4h228q108 0 132 -68l12 -48l-4 -4h-436q-337 0 -404 284l-8 72v412q0 347 324 412zM325 724v-64h552q60 0 60 60v44q0 300 -284 300h-20
q-236 0 -292 -156q-16 -62 -16 -184z" />
    <glyph glyph-name="f" unicode="f" horiz-adv-x="928" 
d="M545 1732h184v-16q0 -94 -180 -108q-157 0 -216 -184l-12 -72l4 -20v-264h324q8 0 8 -12q0 -89 -112 -104h-220v-944l-8 -8q-101 0 -116 124v1212q0 291 264 384z" />
    <glyph glyph-name="g" unicode="g" horiz-adv-x="1210" 
d="M576 1183h49q198 0 269 -95h4q0 85 98 95h8l7 -8v-1230q0 -254 -212 -344q-97 -34 -170 -34h-42l-378 4l-4 4v11q0 86 132 98h318q144 0 216 129q27 67 27 163v181h-4q-100 -94 -280 -94q-279 0 -367 189q-42 98 -42 197v382q0 237 220 326q68 26 151 26zM319 770v-287
q0 -201 94 -257q66 -50 197 -50h26q185 0 243 159q19 69 19 167v314q0 257 -315 257q-204 0 -257 -189z" />
    <glyph glyph-name="h" unicode="h" horiz-adv-x="1254" 
d="M213 1732h8q93 0 104 -128v-512q111 92 256 92h80q270 0 368 -224q28 -83 28 -168v-784l-8 -8q-98 0 -112 120v640q0 217 -140 280q-41 20 -128 28q-246 0 -296 -108q-48 -74 -48 -176v-776l-4 -4v-4q-103 0 -116 120v1604z" />
    <glyph glyph-name="i" unicode="i" horiz-adv-x="528" 
d="M210 1728q120 0 120 -148v-80q0 -8 -12 -8q-74 0 -104 76l-8 36v116l4 4v4zM214 1184h12q86 0 100 -116v-1060q0 -8 -12 -8q-75 0 -104 88l-4 40v1048z" />
    <glyph glyph-name="j" unicode="j" horiz-adv-x="726" 
d="M512 1724l8 -8v-99q-13 -115 -103 -115h-4l-8 8v118q0 77 100 96h7zM516 1204l4 -4v-214l4 -1010q0 -276 -199 -367q-85 -38 -168 -38h-149q-8 0 -8 11q0 108 187 108q80 10 146 61q76 71 76 233v1128q0 74 107 92z" />
    <glyph glyph-name="k" unicode="k" horiz-adv-x="1254" 
d="M210 1720q80 0 112 -80l4 -44v-928h336q178 0 244 148q32 74 32 248v20q0 81 116 100l4 -4v-212q0 -262 -172 -364v-4q172 -104 172 -356v-236q0 -8 -12 -8q-108 23 -108 100v108q0 248 -136 304q-70 32 -172 32h-304v-536l-8 -8q-98 0 -112 116v1596l4 4v4z" />
    <glyph glyph-name="l" unicode="l" horiz-adv-x="899" 
d="M213 1728q116 0 116 -128v-1192q0 -212 156 -272q0 -14 180 -24q68 -35 68 -108l-4 -4h-152q-262 0 -352 264q-20 74 -20 156v1300z" />
    <glyph glyph-name="m" unicode="m" horiz-adv-x="1988" 
d="M209 1184q97 0 112 -96q105 96 252 96h88q229 0 328 -160h12q99 160 336 160h44q266 0 356 -192q52 -85 52 -244v-740q0 -8 -12 -8q-93 0 -108 120v608q0 336 -280 336h-56q-188 0 -248 -128q-32 -60 -32 -200v-728l-8 -8q-80 0 -108 88l-4 24v652q0 209 -136 272
q-71 28 -132 28h-76q-179 0 -248 -152q-20 -69 -20 -124v-780l-8 -8q-81 0 -112 100v1076z" />
    <glyph glyph-name="n" unicode="n" horiz-adv-x="1254" 
d="M213 1184q112 0 112 -92q94 92 300 92h28q282 0 376 -224q28 -80 28 -200v-752q0 -8 -12 -8q-95 0 -112 124v676q0 264 -296 264h-40q-272 0 -272 -300v-756q0 -8 -12 -8q-92 0 -108 112v1064z" />
    <glyph glyph-name="o" unicode="o" horiz-adv-x="1258" 
d="M609 1184h44q292 0 384 -240q24 -77 24 -180v-380q0 -262 -248 -368l-92 -16h-172q-156 0 -276 156q-68 101 -68 272v300q0 311 180 404q102 52 224 52zM329 776v-364q0 -296 280 -296l24 4l28 -4q190 0 256 152q20 61 20 120v416q0 260 -304 260q-235 0 -288 -164
q-16 -55 -16 -124z" />
    <glyph glyph-name="p" unicode="p" horiz-adv-x="1207" 
d="M212 1183q103 -17 103 -91q110 91 216 91h118q251 0 337 -231q23 -67 23 -145v-352q0 -289 -228 -372q-76 -23 -148 -23h-318v-485l-8 -8h-11q-73 0 -95 102v1506q0 8 11 8zM315 743v-565l49 -4l277 -4q141 0 220 125q30 74 30 137v406q-32 231 -231 231h-80
q-191 0 -250 -155q-15 -57 -15 -171z" />
    <glyph glyph-name="q" unicode="q" horiz-adv-x="1210" 
d="M596 1183h15q185 0 280 -87h4q0 70 103 83h3l8 -7v-1597l-8 -8h-11q-79 0 -95 80v406l-7 7h-338q-264 0 -341 277l-8 72v398q0 253 216 346q80 30 179 30zM315 747v-319q0 -201 182 -246q54 -12 148 -12h246v273l4 262l-4 15l4 19q0 233 -114 292q-77 38 -185 38
q-212 0 -266 -155q-15 -67 -15 -167z" />
    <glyph glyph-name="r" unicode="r" horiz-adv-x="844" 
d="M213 1184q112 -26 112 -92h4q105 88 232 88h76l8 -8v-4q-21 -104 -104 -104q-65 0 -152 -84q-60 -85 -60 -204v-768l-8 -8q-81 0 -112 80l-4 44v1052z" />
    <glyph glyph-name="s" unicode="s" horiz-adv-x="1247" 
d="M601 1184h444l8 -8q0 -99 -116 -112h-344q-188 0 -264 -160l-8 -40q0 -102 164 -184q76 -20 252 -20q160 -39 232 -132q80 -100 80 -192v-16q0 -164 -216 -292q-83 -28 -124 -28h-500l-8 8v8q0 84 120 100h304q226 0 292 164q8 16 8 44v12q0 114 -156 188
q-106 28 -260 28q-183 49 -248 156q-48 74 -48 152v20q0 140 180 260q91 44 208 44z" />
    <glyph glyph-name="t" unicode="t" horiz-adv-x="910" 
d="M213 1732q86 0 112 -88v-456h208q102 0 140 -76l4 -36l-8 -8h-344v-624q0 -256 168 -308q34 -12 152 -20q72 -39 72 -112l-12 -4q-311 0 -396 116q-104 103 -104 288v1320z" />
    <glyph glyph-name="u" unicode="u" horiz-adv-x="1254" 
d="M209 1184q116 -16 116 -104v-648q0 -244 152 -288q63 -28 124 -28q336 0 336 272v788l8 8q102 0 112 -136v-1040l-8 -8q-94 0 -112 104v4q-90 -108 -252 -108h-84q-279 0 -368 228q-28 68 -28 144v804l4 4v4z" />
    <glyph glyph-name="v" unicode="v" horiz-adv-x="1254" 
d="M210 1184q148 0 200 -252l216 -656h4q260 796 276 820q62 84 128 84h20q-312 -994 -380 -1180h-8q-106 0 -152 212l-308 968z" />
    <glyph glyph-name="w" unicode="w" horiz-adv-x="1984" 
d="M213 1184q90 0 116 -88v-708q0 -181 152 -248q59 -20 96 -20h96q173 0 240 148q24 48 24 112v680l8 8q104 0 116 -132v-560q0 -201 208 -252l68 -8q255 0 316 168q16 46 16 80v668q0 126 88 148l28 4l4 -4v-788q0 -285 -256 -372q-60 -20 -136 -20h-100q-160 0 -300 164
q-136 -164 -308 -164h-88q-292 0 -380 264q-16 79 -16 136v776z" />
    <glyph glyph-name="x" unicode="x" horiz-adv-x="1240" 
d="M942 1184q108 -15 108 -108l4 -36v-68q0 -269 -168 -364v-4q168 -123 168 -332v-264l-8 -8h-4q-77 0 -104 76l-8 56v160q0 181 -200 244l-76 8h-72q-202 0 -252 -204l-8 -76v-256l-8 -8h-12q-79 0 -100 104v224q0 142 164 276q-164 118 -164 296v280h12q73 0 100 -68
l4 -4h4v-148q0 -215 144 -276q65 -20 100 -20h100q187 0 244 156q15 29 24 112l-4 76v168q0 8 12 8z" />
    <glyph glyph-name="y" unicode="y" horiz-adv-x="1210" 
d="M210 1183q96 0 109 -121v-613q0 -189 148 -254q52 -22 113 -22q237 0 299 151q19 42 19 106v745l8 8q78 0 106 -95v-1154q0 -252 -220 -340q-72 -23 -121 -23h-363q-102 13 -102 98v8l7 8h439q163 0 227 140q19 53 19 113v212h-4q-109 -87 -238 -87h-87q-252 0 -344 235
q-12 32 -23 124l4 57v696l4 4v4z" />
    <glyph glyph-name="z" unicode="z" horiz-adv-x="1254" 
d="M214 1184h708q136 -13 136 -108v-12q0 -96 -692 -904l-36 -40l4 -4h616q104 -21 104 -96v-12l-8 -8h-732q-87 0 -108 88v20q0 16 128 176l600 780h-596q-132 13 -132 100v12z" />
    <glyph glyph-name="braceleft" unicode="{" horiz-adv-x="1001" 
d="M721 1608h84l8 -8q0 -77 -96 -120q-126 -18 -192 -68q-96 -87 -96 -236v-204q0 -132 -44 -168q44 -41 44 -164v-212q0 -240 232 -292q107 0 144 -100l8 -32l-4 -4h-120q-282 0 -380 244q-16 69 -16 128v292q0 46 -56 68q-29 0 -32 12v120q0 6 56 20q32 24 32 60v300
q0 248 240 336q71 28 188 28z" />
    <glyph glyph-name="bar" unicode="|" horiz-adv-x="539" 
d="M213 1732h4q116 -16 116 -108l4 -28v-1584l-8 -12q-124 13 -124 124v1600z" />
    <glyph glyph-name="braceright" unicode="}" 
d="M290 1608q316 0 408 -232q20 -69 20 -104v-308q4 -84 52 -84l32 -8l4 -4v-124l-4 -4q-76 -25 -76 -48q-8 -18 -8 -52v-296q0 -210 -216 -312q-89 -32 -180 -32h-116l-4 4h-4q0 57 76 116q135 24 192 60q120 67 120 312v96l-4 60q12 149 48 152q-48 50 -48 156l4 56v108
q0 237 -120 308q-59 37 -176 52q-92 53 -92 124l4 4h88z" />
    <glyph glyph-name="asciitilde" unicode="~" 
d="M923 878v-156q-63 -72 -122 -97.5t-116 -25.5q-60 0 -177.5 48.5t-176.5 48.5q-51 0 -107.5 -28t-129.5 -112v156q64 73 123 99t114 26q64 0 181.5 -49.5t172.5 -49.5q52 0 108.5 28t129.5 112z" />
    <glyph glyph-name="exclamdown" unicode="&#xa1;" horiz-adv-x="672" 
 />
    <glyph glyph-name="cent" unicode="&#xa2;" horiz-adv-x="1139" 
 />
    <glyph glyph-name="sterling" unicode="&#xa3;" 
d="M748 1347q-72 31 -160 31h-2q-100 0 -190 -101q-84 -93 -84 -241q0 -15 1 -30q0 -135 53 -273h360v-60h-334q14 -30 31 -60q35 -63 35 -138q0 -161 -162 -375h402q130 0 189 132l49 -1l-103 -231h-719l1 50q187 238 187 418q0 77 -34 143q-17 32 -31 62h-161v60h135
q-58 143 -58 253q0 226 123.5 347t306.5 121h4q75 0 185.5 -14t110.5 -34v-161h-58q-5 61 -77 102z" />
    <glyph glyph-name="currency" unicode="&#xa4;" 
d="M350 560q41 -40 99 -57q29 -8 58 -8t58 8q58 17 99 57q40 41 57 99q9 29 9 58t-9 58q-17 58 -57 99q-41 40 -100 57q-29 8 -58 8t-58 -9q-58 -17 -98 -56q-39 -40 -56 -98q-10 -30 -10 -60q0 -28 9 -56q16 -59 57 -100zM240 903l-118 118l80 81l118 -118q44 30 99 46
q44 14 89 14q41 0 83 -12q57 -17 102 -48l118 118l80 -81l-117 -117q31 -46 48 -102q12 -42 12 -85q0 -42 -12 -85q-17 -56 -48 -102l117 -117l-80 -81l-118 118q-45 -32 -101 -48q-42 -12 -85 -12q-42 0 -85 12q-57 16 -102 48l-118 -118l-80 81l118 117q-32 46 -48 103
q-12 42 -12 84q0 44 13 87q16 55 47 99z" />
    <glyph glyph-name="yen" unicode="&#xa5;" horiz-adv-x="1262" 
d="M547 225l-2 242q0 19 -1.5 35t-4.5 32l-484 1q-14 0 -21 6.5t-7 19.5t6.5 19t21.5 6h467l-121 172h-344q-17 0 -23.5 5.5t-6.5 18.5q0 14 6 19.5t22 5.5h307q-43 57 -108 155q-131 197 -227 197q-7 0 -13 5.5t-6 11.5q0 19 10.5 27.5t32.5 8.5q27 0 123 -8t164 -8h57h31
q33 0 41 -6.5t8 -26.5q0 -8 -15 -14t-38 -6q-6 0 -18.5 2t-18.5 2q-24 0 -37.5 -9.5t-13.5 -25.5q0 -18 16.5 -52t46.5 -77l158 -221q13 -19 33 -53q41 -70 71 -70q9 0 16.5 5t14.5 15l277 396q8 12 13 26.5t5 24.5q0 18 -10 27t-37 14q-15 2 -41 4q-47 3 -47 25
q0 15 8 22.5t25 7.5q3 0 15 -1q56 -7 108 -7h139q30 0 65 1t37 1q11 0 18.5 -4.5t8.5 -11.5q0 -28 -38 -34q-18 -3 -27 -5q-63 -15 -147 -117q-7 -9 -12 -15l-169 -206h323q15 0 24 -6t9 -17q0 -15 -6 -20.5t-23 -5.5h-366q-46 -57 -96.5 -112.5t-52.5 -59.5h511
q18 0 25.5 -5.5t7.5 -17.5q0 -14 -7 -21t-22 -7h-530q0 -11 -1 -30.5t-1 -29.5l2 -215q0 -114 5.5 -150t20.5 -44q30 -17 107.5 -19t77.5 -31q0 -12 -10 -20t-25 -8q-2 0 -35.5 4t-64.5 4q-91 0 -208.5 -4t-142.5 -4q-31 0 -40 4t-9 16t8 18.5t37 12.5q9 2 25 5q74 16 92 32
q17 13 24 47t7 102z" />
    <glyph glyph-name="brokenbar" unicode="&#xa6;" 
d="M427 371h160v-789h-160v789zM427 1578h160v-789h-160v789z" />
    <glyph glyph-name="section" unicode="&#xa7;" 
d="M545 321q56 16 97 53q73 65 73 166q0 5 -1 10h-2q-1 14 -4 27q-22 61 -113 127q-59 29 -126 29q-78 0 -125 -44.5t-47 -117.5q0 -123 248 -250zM466 -346q113 6 185 69q72 64 72 165q0 125 -316 276q-123 64 -175.5 137t-52.5 177q0 148 89 237q67 65 170 82l-40 19
q-123 64 -175.5 137t-52.5 177q0 148 89 237q82 79 216 86q8 1 17 1h3q66 0 163 -16.5t97 -41.5v-194h-51q-5 81 -80 132q-70 47 -149 51h-15q-78 0 -125 -44.5t-47 -117.5q0 -132 287 -269q149 -67 204.5 -143.5t55.5 -187.5q0 -171 -101 -282q-47 -39 -99 -64
q108 -56 154 -118q55 -77 55 -187q0 -171 -101 -283q-124 -102 -277 -105v1q-6 -1 -13 -1h-3q-66 0 -163 16.5t-97 41.5v194h51q5 -81 80 -132q68 -45 145 -50z" />
    <glyph glyph-name="dieresis" unicode="&#xa8;" horiz-adv-x="1024" 
d="M223 1289l71 72q13 12 25 12q11 0 27 -14l69 -73q10 -14 10 -25q0 -13 -12 -27l-69 -75q-17 -17 -25 -17q-14 0 -25 12l-76 86q-9 12 -9 23q0 13 14 26zM588 1289l71 72q13 12 25 12q11 0 27 -13l69 -74q10 -14 10 -25q0 -13 -12 -26l-69 -76q-17 -17 -25 -17
q-14 0 -25 12l-76 87q-9 11 -9 22q0 13 14 26z" />
    <glyph glyph-name="copyright" unicode="&#xa9;" horiz-adv-x="1674" 
d="M840 1456q145 0 280 -56.5t239 -160.5q102 -101 158.5 -238t56.5 -283q0 -147 -56.5 -282t-162.5 -240q-105 -105 -239 -159.5t-283 -54.5q-146 0 -278 55.5t-238 160.5q-106 104 -161.5 237.5t-55.5 282.5q0 148 55.5 283t159.5 238q102 104 238.5 160.5t286.5 56.5z
M357 1197q-95 -96 -146 -219.5t-51 -259.5q0 -137 51 -259t148 -219q98 -96 219 -147t256 -51q137 0 259.5 50.5t219.5 145.5q97 98 149 221.5t52 258.5q0 134 -52 259.5t-145 219.5q-96 96 -220 147.5t-258 51.5q-137 0 -262 -51.5t-220 -147.5zM865 223q-142 0 -264 68
t-186 185t-64 243t65.5 244t187.5 184.5t254 66.5q38 0 75 -6.5t76 -20.5q5 -1 9 -1q19 0 26 30h42l72 -198h-44q-52 94 -131 124q-72 26 -147 26h-15q-86 -8 -166.5 -71t-121.5 -177q-33 -90 -33 -184q0 -25 2 -50q11 -121 69.5 -224t149.5 -152q72 -40 166 -42
q124 0 194 56t70 126h53v-100q0 -46 -96.5 -86.5t-242.5 -40.5z" />
    <glyph glyph-name="ordfeminine" unicode="&#xaa;" horiz-adv-x="648" 
 />
    <glyph glyph-name="guillemotleft" unicode="&#xab;" horiz-adv-x="944" 
d="M174 479l342 303h14v-37l-205 -266l205 -266v-37h-14zM487 479l342 303h14v-37l-205 -266l205 -266v-37h-14z" />
    <glyph glyph-name="logicalnot" unicode="&#xac;" 
d="M87 767h840v-491l-1 -1h-98v392h-741v100z" />
    <glyph glyph-name="registered" unicode="&#xae;" horiz-adv-x="1674" 
d="M751 1099v-374l3 -8q23 -56 56 -81q29 -22 56 -22h6q31 4 61.5 38.5t46.5 97.5q13 50 13 103q0 13 -1 27q-4 67 -28 124.5t-56.5 76t-63.5 18.5h-93zM984 576l82 -116q100 -141 150 -141h34v-50h-346v50h45q30 0 30 22q0 29 -69 114l-75 102q-42 0 -84 42v-159
q0 -121 36 -121h53v-50h-316v50h43q37 0 37 121v538q0 121 -37 121h-43v70h356q64 -1 125 -42q60 -41 92.5 -114t32.5 -152q0 -78 -32 -150.5t-114 -134.5zM840 1456q145 0 280 -56.5t239 -160.5q102 -101 158.5 -238t56.5 -283q0 -147 -56.5 -282t-162.5 -240
q-105 -105 -239 -159.5t-283 -54.5q-146 0 -278 55.5t-238 160.5q-106 104 -161.5 237.5t-55.5 282.5q0 148 55.5 283t159.5 238q102 104 238.5 160.5t286.5 56.5zM357 1197q-95 -96 -146 -219.5t-51 -259.5q0 -137 51 -259t148 -219q98 -96 219 -147t256 -51
q137 0 259.5 50.5t219.5 145.5q97 98 149 221.5t52 258.5q0 134 -52 259.5t-145 219.5q-96 96 -220 147.5t-258 51.5q-137 0 -262 -51.5t-220 -147.5z" />
    <glyph glyph-name="macron" unicode="&#xaf;" horiz-adv-x="670" 
 />
    <glyph glyph-name="degree" unicode="&#xb0;" horiz-adv-x="674" 
d="M339 1372q-86 0 -147.5 -61t-61.5 -148t61 -147t148 -60t147 60t60 147t-60.5 148t-146.5 61zM339 1442q115 0 196 -81.5t81 -196.5q0 -114 -82 -196t-197 -82q-117 0 -197 81t-80 197t81.5 197t197.5 81z" />
    <glyph glyph-name="plusminus" unicode="&#xb1;" 
 />
    <glyph glyph-name="uni00B2" unicode="&#xb2;" 
 />
    <glyph glyph-name="uni00B3" unicode="&#xb3;" 
 />
    <glyph glyph-name="acute" unicode="&#xb4;" horiz-adv-x="1024" 
d="M607 1375q35 35 55.5 47t40.5 12q33 0 53.5 -20t20.5 -51q0 -22 -15.5 -42t-46.5 -40l-330 -203h-69z" />
    <glyph glyph-name="mu" unicode="&#xb5;" horiz-adv-x="1180" 
 />
    <glyph glyph-name="paragraph" unicode="&#xb6;" horiz-adv-x="1024" 
d="M929 1435v-70h-127v-1365h-82v1365h-166v-1365h-84v738q-174 8 -275.5 102.5t-101.5 245.5q0 157 107.5 253t285.5 96h443z" />
    <glyph glyph-name="periodcentered" unicode="&#xb7;" horiz-adv-x="508" 
d="M145 740l82 84q15 14 29 14q13 0 31 -16l80 -86q12 -16 12 -29q0 -15 -14 -31l-80 -88q-20 -20 -29 -20q-16 0 -29 14l-88 101q-10 13 -10 26q0 15 16 31z" />
    <glyph glyph-name="periodcentered" unicode="&#x2219;" horiz-adv-x="508" 
d="M145 740l82 84q15 14 29 14q13 0 31 -16l80 -86q12 -16 12 -29q0 -15 -14 -31l-80 -88q-20 -20 -29 -20q-16 0 -29 14l-88 101q-10 13 -10 26q0 15 16 31z" />
    <glyph glyph-name="cedilla" unicode="&#xb8;" horiz-adv-x="1024" 
d="M360 -290q85 -52 152 -52q66 0 94.5 21.5t28.5 66.5t-49 64q-40 16 -102 16q-16 0 -34 -2l48 176h63l-37 -104q32 4 62 5q86 0 134 -40.5t48 -113.5q0 -76 -58.5 -120.5t-160.5 -44.5q-109 0 -189 32v96z" />
    <glyph glyph-name="uni00B9" unicode="&#xb9;" 
 />
    <glyph glyph-name="ordmasculine" unicode="&#xba;" horiz-adv-x="718" 
 />
    <glyph glyph-name="guillemotright" unicode="&#xbb;" horiz-adv-x="944" 
d="M115 176h-14v37l205 266l-205 266v37h14l342 -303zM428 176h-14v37l205 266l-205 266v37h14l342 -303z" />
    <glyph glyph-name="onequarter" unicode="&#xbc;" horiz-adv-x="1708" 
 />
    <glyph glyph-name="onehalf" unicode="&#xbd;" horiz-adv-x="1964" 
 />
    <glyph glyph-name="threequarters" unicode="&#xbe;" horiz-adv-x="1708" 
 />
    <glyph glyph-name="questiondown" unicode="&#xbf;" horiz-adv-x="748" 
 />
    <glyph glyph-name="Agrave" unicode="&#xc0;" horiz-adv-x="1540" 
 />
    <glyph glyph-name="Aacute" unicode="&#xc1;" horiz-adv-x="1540" 
 />
    <glyph glyph-name="Acircumflex" unicode="&#xc2;" horiz-adv-x="1540" 
 />
    <glyph glyph-name="Atilde" unicode="&#xc3;" horiz-adv-x="1540" 
 />
    <glyph glyph-name="Adieresis" unicode="&#xc4;" horiz-adv-x="1540" 
 />
    <glyph glyph-name="Aring" unicode="&#xc5;" horiz-adv-x="1540" 
 />
    <glyph glyph-name="AE" unicode="&#xc6;" horiz-adv-x="2118" 
 />
    <glyph glyph-name="Ccedilla" unicode="&#xc7;" horiz-adv-x="1399" 
 />
    <glyph glyph-name="Egrave" unicode="&#xc8;" horiz-adv-x="1151" 
 />
    <glyph glyph-name="Eacute" unicode="&#xc9;" horiz-adv-x="1151" 
 />
    <glyph glyph-name="Ecircumflex" unicode="&#xca;" horiz-adv-x="1151" 
 />
    <glyph glyph-name="Edieresis" unicode="&#xcb;" horiz-adv-x="1151" 
 />
    <glyph glyph-name="Igrave" unicode="&#xcc;" horiz-adv-x="657" 
 />
    <glyph glyph-name="Iacute" unicode="&#xcd;" horiz-adv-x="657" 
 />
    <glyph glyph-name="Icircumflex" unicode="&#xce;" horiz-adv-x="657" 
 />
    <glyph glyph-name="Idieresis" unicode="&#xcf;" horiz-adv-x="657" 
 />
    <glyph glyph-name="Eth" unicode="&#xd0;" horiz-adv-x="1518" 
 />
    <glyph glyph-name="Ntilde" unicode="&#xd1;" horiz-adv-x="1554" 
 />
    <glyph glyph-name="Ograve" unicode="&#xd2;" horiz-adv-x="1614" 
 />
    <glyph glyph-name="Oacute" unicode="&#xd3;" horiz-adv-x="1614" 
 />
    <glyph glyph-name="Ocircumflex" unicode="&#xd4;" horiz-adv-x="1614" 
 />
    <glyph glyph-name="Otilde" unicode="&#xd5;" horiz-adv-x="1614" 
 />
    <glyph glyph-name="Odieresis" unicode="&#xd6;" horiz-adv-x="1614" 
 />
    <glyph glyph-name="multiply" unicode="&#xd7;" 
d="M507 618l-247 -247l-99 99l247 247l-247 248l99 98l247 -247l248 247l98 -99l-247 -247l247 -247l-99 -99z" />
    <glyph glyph-name="Oslash" unicode="&#xd8;" horiz-adv-x="1614" 
 />
    <glyph glyph-name="Ugrave" unicode="&#xd9;" horiz-adv-x="1501" 
 />
    <glyph glyph-name="Uacute" unicode="&#xda;" horiz-adv-x="1501" 
 />
    <glyph glyph-name="Ucircumflex" unicode="&#xdb;" horiz-adv-x="1501" 
 />
    <glyph glyph-name="Udieresis" unicode="&#xdc;" horiz-adv-x="1501" 
 />
    <glyph glyph-name="Yacute" unicode="&#xdd;" horiz-adv-x="1233" 
 />
    <glyph glyph-name="Thorn" unicode="&#xde;" horiz-adv-x="1120" 
 />
    <glyph glyph-name="germandbls" unicode="&#xdf;" horiz-adv-x="1251" 
 />
    <glyph glyph-name="agrave" unicode="&#xe0;" horiz-adv-x="922" 
 />
    <glyph glyph-name="aacute" unicode="&#xe1;" horiz-adv-x="922" 
 />
    <glyph glyph-name="acircumflex" unicode="&#xe2;" horiz-adv-x="922" 
 />
    <glyph glyph-name="atilde" unicode="&#xe3;" horiz-adv-x="922" 
 />
    <glyph glyph-name="adieresis" unicode="&#xe4;" horiz-adv-x="922" 
 />
    <glyph glyph-name="aring" unicode="&#xe5;" horiz-adv-x="922" 
 />
    <glyph glyph-name="ae" unicode="&#xe6;" horiz-adv-x="1454" 
 />
    <glyph glyph-name="ccedilla" unicode="&#xe7;" horiz-adv-x="905" 
 />
    <glyph glyph-name="egrave" unicode="&#xe8;" horiz-adv-x="909" 
 />
    <glyph glyph-name="eacute" unicode="&#xe9;" horiz-adv-x="909" 
 />
    <glyph glyph-name="ecircumflex" unicode="&#xea;" horiz-adv-x="909" 
 />
    <glyph glyph-name="edieresis" unicode="&#xeb;" horiz-adv-x="909" 
 />
    <glyph glyph-name="igrave" unicode="&#xec;" horiz-adv-x="514" 
 />
    <glyph glyph-name="iacute" unicode="&#xed;" horiz-adv-x="514" 
 />
    <glyph glyph-name="icircumflex" unicode="&#xee;" horiz-adv-x="514" 
 />
    <glyph glyph-name="idieresis" unicode="&#xef;" horiz-adv-x="514" 
 />
    <glyph glyph-name="eth" unicode="&#xf0;" horiz-adv-x="1139" 
 />
    <glyph glyph-name="ntilde" unicode="&#xf1;" horiz-adv-x="1108" 
 />
    <glyph glyph-name="ograve" unicode="&#xf2;" horiz-adv-x="1010" 
 />
    <glyph glyph-name="oacute" unicode="&#xf3;" horiz-adv-x="1010" 
 />
    <glyph glyph-name="ocircumflex" unicode="&#xf4;" horiz-adv-x="1010" 
 />
    <glyph glyph-name="otilde" unicode="&#xf5;" horiz-adv-x="1010" 
 />
    <glyph glyph-name="odieresis" unicode="&#xf6;" horiz-adv-x="1010" 
 />
    <glyph glyph-name="divide" unicode="&#xf7;" 
d="M87 647v140h839l1 -1v-139h-840zM398 408l82 84q15 14 29 14q13 0 31 -16l80 -86q12 -16 12 -29q0 -15 -14 -31l-80 -88q-20 -20 -29 -20q-16 0 -29 14l-88 101q-10 13 -10 26q0 15 16 31zM398 1101l82 84q15 14 29 14q13 0 31 -16l80 -86q12 -16 12 -29q0 -15 -14 -31
l-80 -88q-20 -20 -29 -20q-16 0 -29 14l-88 101q-10 13 -10 26q0 15 16 31z" />
    <glyph glyph-name="oslash" unicode="&#xf8;" horiz-adv-x="1010" 
 />
    <glyph glyph-name="ugrave" unicode="&#xf9;" horiz-adv-x="1059" 
 />
    <glyph glyph-name="uacute" unicode="&#xfa;" horiz-adv-x="1059" 
 />
    <glyph glyph-name="ucircumflex" unicode="&#xfb;" horiz-adv-x="1059" 
 />
    <glyph glyph-name="udieresis" unicode="&#xfc;" horiz-adv-x="1059" 
 />
    <glyph glyph-name="yacute" unicode="&#xfd;" horiz-adv-x="868" 
 />
    <glyph glyph-name="thorn" unicode="&#xfe;" horiz-adv-x="1010" 
 />
    <glyph glyph-name="ydieresis" unicode="&#xff;" horiz-adv-x="868" 
 />
    <glyph glyph-name="dotlessi" unicode="&#x131;" horiz-adv-x="514" 
d="M328 223q0 -173 100 -173h46v-50h-442v50h46q100 0 100 173v432q0 77 -111 77h-48v44q222 69 261 182h48v-735z" />
    <glyph glyph-name="circumflex" unicode="&#x2c6;" horiz-adv-x="1024" 
d="M221 1079l232 355h118l232 -355h-58l-233 216l-233 -216h-58z" />
    <glyph glyph-name="caron" unicode="&#x2c7;" horiz-adv-x="1024" 
d="M221 1434h58l233 -214l233 214h58l-232 -356h-118z" />
    <glyph glyph-name="uni02C9" unicode="&#x2c9;" horiz-adv-x="1024" 
d="M254 1195v125h516v-125h-516z" />
    <glyph glyph-name="breve" unicode="&#x2d8;" horiz-adv-x="1024" 
d="M219 1349h51q17 -73 75 -107t167 -34t166 33.5t74 107.5h51q-20 -133 -94 -201.5t-197 -68.5q-122 0 -197 69t-96 201z" />
    <glyph glyph-name="dotaccent" unicode="&#x2d9;" horiz-adv-x="1024" 
d="M422 1289l69 72q6 6 13 9t14 3q6 0 12.5 -3t12.5 -9l71 -76q5 -4 7 -10t2 -14q-1 -9 -3 -15t-8 -12l-71 -76q-12 -11 -16 -13.5t-7 -2.5q-10 0 -16.5 2.5t-10.5 8.5l-75 87q-4 4 -6 9.5t-2 13.5q0 6 3 12.5t11 13.5z" />
    <glyph glyph-name="ring" unicode="&#x2da;" horiz-adv-x="1024" 
d="M411 1257q0 -42 29 -71t71 -29t71 29t29 71q0 40 -29.5 69.5t-70.5 29.5t-70.5 -29.5t-29.5 -69.5zM335 1257q0 75 51 126t125 51q76 0 127.5 -51.5t51.5 -125.5q0 -75 -51.5 -126.5t-127.5 -51.5q-74 0 -125 51.5t-51 126.5z" />
    <glyph glyph-name="ogonek" unicode="&#x2db;" horiz-adv-x="1024" 
d="M640 0q-71 -62 -110.5 -119.5t-39.5 -112.5q0 -47 27 -75t73 -28q40 0 69.5 15.5t49.5 48.5l28 -16q-36 -63 -90.5 -97t-119.5 -34q-70 0 -114 35.5t-44 90.5q0 76 60.5 156.5t161.5 135.5h49z" />
    <glyph glyph-name="tilde" unicode="&#x2dc;" horiz-adv-x="1024" 
d="M808 1382q-20 -103 -68.5 -154t-126.5 -51h-4q-50 0 -113 23q-66 24 -114 24q-39 0 -60.5 -20.5t-33.5 -71.5h-54q19 106 68 158.5t129 52.5q46 -1 113 -24q64 -23 112 -23h4q36 0 58 20t36 66h54z" />
    <glyph glyph-name="hungarumlaut" unicode="&#x2dd;" horiz-adv-x="1024" 
d="M217 1079l144 273q24 44 45.5 63t46.5 19q28 0 48 -20t20 -47q0 -16 -10.5 -35t-30.5 -41l-205 -212h-58zM502 1079l144 273q24 44 45.5 63t46.5 19q28 0 48 -20t20 -47q0 -16 -10.5 -35t-30.5 -41l-205 -212h-58z" />
    <glyph glyph-name="endash" unicode="&#x2013;" horiz-adv-x="1108" 
d="M56 419v120h996v-120h-996z" />
    <glyph glyph-name="emdash" unicode="&#x2014;" horiz-adv-x="2048" 
d="M0 419v120h2048v-120h-2048z" />
    <glyph glyph-name="quoteleft" unicode="&#x2018;" horiz-adv-x="557" 
d="M319 1016q-44 0 -88.5 65.5t-44.5 151.5q0 109 71 226.5t139 117.5v-43q-73 -43 -87 -190q0 -119 129 -161v-42z" />
    <glyph glyph-name="quoteright" unicode="&#x2019;" horiz-adv-x="557" 
d="M238 1577q44 0 88.5 -65.5t44.5 -151.5q0 -109 -71 -226.5t-139 -117.5v43q73 43 87 190q0 119 -129 161v42z" />
    <glyph glyph-name="quotesinglbase" unicode="&#x201a;" horiz-adv-x="557" 
d="M238 281q44 0 88.5 -65.5t44.5 -151.5q0 -109 -71 -226.5t-139 -117.5v43q73 43 87 190q0 119 -129 161v42z" />
    <glyph glyph-name="quotedblleft" unicode="&#x201c;" horiz-adv-x="910" 
d="M319 1016q-44 0 -88.5 65.5t-44.5 151.5q0 109 71 226.5t139 117.5v-43q-73 -43 -87 -190q0 -119 129 -161v-42zM672 1016q-44 0 -88.5 65.5t-44.5 151.5q0 109 71 226.5t139 117.5v-43q-73 -43 -87 -190q0 -119 129 -161v-42z" />
    <glyph glyph-name="quotedblright" unicode="&#x201d;" horiz-adv-x="910" 
d="M238 1577q44 0 88.5 -65.5t44.5 -151.5q0 -109 -71 -226.5t-139 -117.5v43q73 43 87 190q0 119 -129 161v42zM591 1577q44 0 88.5 -65.5t44.5 -151.5q0 -109 -71 -226.5t-139 -117.5v43q73 43 87 190q0 119 -129 161v42z" />
    <glyph glyph-name="quotedblbase" unicode="&#x201e;" horiz-adv-x="910" 
d="M238 281q44 0 88.5 -65.5t44.5 -151.5q0 -109 -71 -226.5t-139 -117.5v43q73 43 87 190q0 119 -129 161v42zM591 281q44 0 88.5 -65.5t44.5 -151.5q0 -109 -71 -226.5t-139 -117.5v43q73 43 87 190q0 119 -129 161v42z" />
    <glyph glyph-name="dagger" unicode="&#x2020;" 
d="M486 1022q-8 97 -54 178q-57 101 -57 129q0 49 36 78.5t96 29.5q57 0 94.5 -27.5t37.5 -71.5q0 -32 -55 -137q-46 -85 -55 -179q96 8 177 54q101 57 129 57q49 0 79 -36t30 -96q0 -57 -27.5 -94.5t-72.5 -37.5q-32 0 -136 55q-85 46 -179 57q8 -176 110 -277
q-106 -460 -112 -974h-38q-6 514 -114 974q102 101 111 277q-96 -10 -178 -55q-101 -57 -129 -57q-49 0 -78.5 36t-29.5 96q0 57 27.5 94.5t71.5 37.5q32 0 137 -56q85 -46 179 -55z" />
    <glyph glyph-name="daggerdbl" unicode="&#x2021;" 
d="M528 186q94 11 179 57q104 55 136 55q45 0 72.5 -37.5t27.5 -94.5q0 -60 -30 -96t-79 -36q-28 0 -129 57q-81 46 -177 54q9 -94 55 -179q55 -105 55 -137q0 -44 -37.5 -71.5t-94.5 -27.5q-60 0 -96 29.5t-36 78.5q0 28 57 129q46 81 54 178q-94 -9 -179 -55
q-105 -56 -137 -56q-44 0 -71.5 37.5t-27.5 94.5q0 60 29.5 96t78.5 36q28 0 129 -57q82 -45 178 -55q-9 226 -111 398q102 171 111 397q-96 -10 -178 -55q-101 -57 -129 -57q-49 0 -78.5 36t-29.5 96q0 57 27.5 94.5t71.5 37.5q32 0 137 -56q85 -46 179 -55q-8 97 -54 178
q-57 101 -57 129q0 49 36 78.5t96 29.5q57 0 94.5 -27.5t37.5 -71.5q0 -32 -55 -137q-46 -85 -55 -179q96 8 177 54q101 57 129 57q49 0 79 -36t30 -96q0 -57 -27.5 -94.5t-72.5 -37.5q-32 0 -136 55q-85 46 -179 57q8 -226 110 -397q-102 -172 -110 -398z" />
    <glyph glyph-name="bullet" unicode="&#x2022;" horiz-adv-x="1024" 
d="M216 718q0 123 87 209t210 86q122 0 208.5 -86.5t86.5 -208.5t-87.5 -209.5t-209.5 -87.5q-123 0 -209 87t-86 210z" />
    <glyph glyph-name="ellipsis" unicode="&#x2026;" horiz-adv-x="2048" 
d="M145 167l82 84q15 14 29 14q13 0 31 -16l80 -86q12 -16 12 -29q0 -15 -14 -31l-80 -88q-20 -20 -29 -20q-16 0 -29 14l-88 101q-10 13 -10 26q0 15 16 31zM828 167l82 84q15 14 29 14q13 0 31 -16l80 -86q12 -16 12 -29q0 -15 -14 -31l-80 -88q-20 -20 -29 -20
q-16 0 -29 14l-88 101q-10 13 -10 26q0 15 16 31zM1511 167l82 84q15 14 29 14q13 0 31 -16l80 -86q12 -16 12 -29q0 -15 -14 -31l-80 -88q-20 -20 -29 -20q-16 0 -29 14l-88 101q-10 13 -10 26q0 15 16 31z" />
    <glyph glyph-name="guilsinglleft" unicode="&#x2039;" horiz-adv-x="631" 
d="M174 479l342 303h14v-37l-205 -266l205 -266v-37h-14z" />
    <glyph glyph-name="guilsinglright" unicode="&#x203a;" horiz-adv-x="631" 
d="M115 176h-14v37l205 266l-205 266v37h14l342 -303z" />
    <glyph glyph-name="fraction" unicode="&#x2044;" horiz-adv-x="342" 
d="M-342 -29l940 1461h84l-938 -1461h-86z" />
    <glyph glyph-name="fraction" unicode="&#x2215;" horiz-adv-x="342" 
d="M-342 -29l940 1461h84l-938 -1461h-86z" />
    <glyph glyph-name="franc" unicode="&#x20a3;" 
d="M247 357h-194v60h194v732q0 235 -103 235h-96v50h915l103 -231h-49q-59 182 -190 182l-316 -1q-102 0 -102 -235v-352h361q100 0 100 63v58h50v-342h-50v60q0 62 -100 62h-361v-281h194v-60h-194v-72q0 -235 102 -235h97v-50h-560v50h96q103 0 103 235v72z" />
    <glyph glyph-name="lira" unicode="&#x20a4;" 
d="M748 1347q-72 31 -160 31h-2q-100 0 -190 -101q-84 -93 -84 -241q0 -15 1 -30q0 -106 33 -213h380v-60h-360q12 -30 26 -60h352v-60h-321q35 -63 35 -138q0 -161 -162 -375h402q130 0 189 132l49 -1l-103 -231h-719l1 50q187 238 187 418q0 77 -34 143l-2 2h-172v60h143
q-14 31 -26 60h-135v60h113q-36 107 -36 193q0 226 123.5 347t310.5 121q75 0 185.5 -14t110.5 -34v-161h-58q-5 61 -77 102z" />
    <glyph glyph-name="peseta" unicode="&#x20a7;" horiz-adv-x="2028" 
d="M409 1384v-662q3 -9 7 -17q41 -102 108 -153q57 -44 116 -44q10 0 19 1q68 8 127 75t87 177q22 87 22 179q0 24 -1 47q-7 116 -49.5 218.5t-108.5 144.5q-56 35 -112 35q-10 0 -21 -1h-194zM1496 908h-179v-685q0 -81 34 -119q28 -31 81 -37l-71 192l49 1
q55 -130 114 -174q57 -44 127 -44h7q92 0 151 52q59 53 59 136q0 102 -259 226q-101 52 -144 112t-43 145q0 121 73 194zM1039 910q-7 -101 -48 -194q-50 -114 -141 -177.5t-190 -63.5q-100 0 -191 64q-33 22 -60 51v-305q0 -235 102 -235h97v-50h-560v50h96q103 0 103 235
v864q0 235 -103 235h-96v50h618q92 -2 181 -62q91 -62 143 -177q50 -113 51 -237h10q216 0 216 355h50v-355h259q42 19 110 20h2q54 0 133.5 -13.5t79.5 -33.5v-159h-42q-4 66 -65.5 108t-133.5 42q-64 0 -102.5 -36.5t-38.5 -96.5q0 -108 235 -220q122 -55 167.5 -117.5
t45.5 -153.5q0 -140 -83 -231q-102 -84 -228 -86q-58 0 -105 11q-28 6 -56 6q-18 0 -36 -3q-28 -5 -59 -5q-124 0 -173.5 57t-57.5 176h-1v687h-129z" />
    <glyph glyph-name="Euro" unicode="&#x20ac;" 
d="M140 372q-62 135 -76 281h-108l17 60h87v29q0 16 1 31h-71l17 60h58q14 145 76 281q81 178 226 274t298 96q43 0 87 -8q40 -10 82 -29q8 -6 16 -6q20 0 34 45h41l84 -281l-40 -1q-49 134 -138 178q-43 22 -81 32v3q-50 16 -101 16q-17 0 -34 -2q-120 -12 -226 -113.5
t-157 -273.5q-32 -104 -39 -211h706l-17 -60h-692q0 -30 2 -60h674l-17 -60h-652q17 -158 83 -298q74 -157 193 -236q102 -68 216 -69q186 3 256 91q74 91 74 185h48v-143q0 -70 -111 -127q-105 -54 -267 -56q-181 0 -325.5 98t-223.5 274z" />
    <glyph glyph-name="afii61352" unicode="&#x2116;" horiz-adv-x="2271" 
 />
    <glyph glyph-name="trademark" unicode="&#x2122;" horiz-adv-x="1497" 
 />
    <glyph glyph-name="partialdiff" unicode="&#x2202;" 
d="M232 537q0 -41 5 -79q14 -122 61.5 -230t118.5 -165q64 -53 128 -53q6 0 13 1q70 5 127.5 70.5t80.5 179.5q16 73 16 149q0 42 -5 85q-14 122 -62.5 231.5t-119.5 165.5q-65 50 -128 50h-11q-68 -5 -126 -69.5t-82 -178.5q-16 -84 -16 -157zM937 477q0 -132 -56.5 -251
t-159 -185t-214.5 -66t-214.5 66t-159 185t-56.5 251q0 131 58 251t161 185t211 65q109 0 212 -65q29 -18 54 -41q-84 235 -233.5 377t-326.5 155v55q306 0 515 -285t209 -697z" />
    <glyph glyph-name="Delta" unicode="&#x2206;" horiz-adv-x="1081" 
d="M514 1195l-406 -1072h801zM547 1434l526 -1434h-1067z" />
    <glyph glyph-name="product" unicode="&#x220f;" horiz-adv-x="1515" 
d="M511 1384q-102 0 -102 -235v-1281q0 -235 102 -235h97v-51h-560v51h96q103 0 103 235v1281q0 235 -103 235h-96v50h1419v-50h-97q-102 0 -102 -235v-1281q0 -235 102 -235h97v-50h-560v50h96q103 0 103 235v1281q0 235 -103 235h-492z" />
    <glyph glyph-name="summation" unicode="&#x2211;" horiz-adv-x="1206" 
d="M1059 548l-788 -914h635q130 0 189 182h49l-103 -232h-921v50q62 0 106 53l663 781l-663 859q-44 57 -106 57v50h921l103 -232h-49q-59 182 -189 182h-485z" />
    <glyph glyph-name="minus" unicode="&#x2212;" 
d="M87 647v140h839l1 -1v-139h-840z" />
    <glyph glyph-name="radical" unicode="&#x221a;" 
d="M181 0l-164 359l74 35l85 -185l728 1470h150v-60h-72z" />
    <glyph glyph-name="infinity" unicode="&#x221e;" 
d="M439 755q-15 103 -74 133q-46 22 -84 22q-12 0 -23 -2q-49 -10 -92.5 -44.5t-65.5 -84.5q-20 -46 -20 -90v-8q2 -48 27.5 -89t71.5 -58q29 -11 61 -11q16 0 33 3q47 10 90.5 43.5t75.5 185.5zM466 687q12 -96 94 -153q69 -48 123 -48q11 0 21 2q62 12 117.5 52t84.5 101
q26 54 26 108v11q-2 60 -35.5 108.5t-91.5 68.5q-37 13 -76 13q-22 0 -44 -4q-67 -9 -127 -62t-92 -197zM450 827q9 35 21 69q34 88 95 137t128 49t128 -48t95 -135t34 -182t-34 -182t-95 -135t-128 -48t-128 49t-95 136q-12 35 -21 70q-5 -21 -12 -41q-27 -73 -74 -113
t-99 -40t-100 41t-73.5 113.5t-25.5 149.5q0 76 25.5 149t73.5 114t100 41t99 -40t74 -112q7 -21 12 -42z" />
    <glyph glyph-name="integral" unicode="&#x222b;" horiz-adv-x="665" 
d="M-12 -281q-60 0 -60 29v159h36q1 -43 34.5 -64.5t63.5 -21.5h1q82 0 115 162q32 162 40 316l70 734l8 62q27 238 135 429.5t234 191.5q60 0 60 -29v-159h-36q-1 43 -35 64.5t-63 21.5q-71 0 -116 -155.5t-49 -363.5l-73 -767q-20 -231 -130.5 -420t-234.5 -189z" />
    <glyph glyph-name="approxequal" unicode="&#x2248;" 
d="M923 1053v-156q-63 -72 -122 -97.5t-116 -25.5q-60 0 -177.5 48.5t-176.5 48.5q-51 0 -107.5 -28t-129.5 -112v156q64 73 123 99t114 26q64 0 181.5 -49.5t172.5 -49.5q52 0 108.5 28t129.5 112zM923 705v-156q-63 -72 -122 -97.5t-116 -25.5q-60 0 -177.5 48.5
t-176.5 48.5q-51 0 -107.5 -28t-129.5 -112v156q64 73 123 99t114 26q64 0 181.5 -49.5t172.5 -49.5q52 0 108.5 28t129.5 112z" />
    <glyph glyph-name="lessequal" unicode="&#x2264;" 
d="M927 1074l-625 -359l625 -355v-167l-840 481v83l840 484v-167zM87 1v140h839l1 -1v-139h-840z" />
    <glyph glyph-name="greaterequal" unicode="&#x2265;" 
d="M87 1241l840 -484v-83l-840 -481v167l625 355l-625 359v167zM87 2v140h839l1 -1v-139h-840z" />
    <glyph glyph-name="uniF001" unicode="&#xf001;" horiz-adv-x="1332" 
d="M549 1732h184v-16q0 -94 -180 -108q-157 0 -216 -184l-12 -72l4 -20v-264h324q8 0 8 -12q0 -89 -112 -104h-220v-944l-8 -8q-101 0 -116 124v1212q0 291 264 384zM1005 1728q120 0 120 -148v-80q0 -8 -12 -8q-74 0 -104 76l-8 36v116l4 4v4zM1009 1184h12q86 0 100 -116
v-1060q0 -8 -12 -8q-75 0 -104 88l-4 40v1048z" />
    <glyph glyph-name="uniF001" unicode="&#xfb01;" horiz-adv-x="1332" 
d="M549 1732h184v-16q0 -94 -180 -108q-157 0 -216 -184l-12 -72l4 -20v-264h324q8 0 8 -12q0 -89 -112 -104h-220v-944l-8 -8q-101 0 -116 124v1212q0 291 264 384zM1005 1728q120 0 120 -148v-80q0 -8 -12 -8q-74 0 -104 76l-8 36v116l4 4v4zM1009 1184h12q86 0 100 -116
v-1060q0 -8 -12 -8q-75 0 -104 88l-4 40v1048z" />
    <glyph glyph-name="uniF002" unicode="&#xf002;" horiz-adv-x="1728" 
d="M549 1732h184v-16q0 -94 -180 -108q-157 0 -216 -184l-12 -72l4 -20v-264h324q8 0 8 -12q0 -89 -112 -104h-220v-944l-8 -8q-101 0 -116 124v1212q0 291 264 384zM1012 1728q116 0 116 -128v-1192q0 -212 156 -272q0 -14 180 -24q68 -35 68 -108l-4 -4h-152
q-262 0 -352 264q-20 74 -20 156v1300z" />
    <glyph glyph-name="uniF002" unicode="&#xfb02;" horiz-adv-x="1728" 
d="M549 1732h184v-16q0 -94 -180 -108q-157 0 -216 -184l-12 -72l4 -20v-264h324q8 0 8 -12q0 -89 -112 -104h-220v-944l-8 -8q-101 0 -116 124v1212q0 291 264 384zM1012 1728q116 0 116 -128v-1192q0 -212 156 -272q0 -14 180 -24q68 -35 68 -108l-4 -4h-152
q-262 0 -352 264q-20 74 -20 156v1300z" />
  </font>
</defs>
</svg>
